<svg width="370" height="354" viewBox="0 0 370 354" fill="none" xmlns="http://www.w3.org/2000/svg">
<g clip-path="url(#clip0_239602_247)">
<rect width="370" height="354" fill="#B1CCFF"/>
<path d="M-84.7112 137.853C-86.9421 130.762 -88.7896 117.821 -67.447 128.799C-65.3848 129.857 -63.6446 131.49 -62.51 133.514C-59.5585 138.788 -50.1062 149.919 -23.1289 149.015C-19.9705 148.908 -16.8963 150.065 -14.5888 152.212C-5.97206 160.223 13.9906 179.956 11.0928 188.25C8.16434 196.63 11.0775 204.096 13.1397 207.998C13.6073 208.88 16.1908 212.452 16.6355 213.342C19.6176 219.383 30.5955 252.845 21.2198 265.188C11.8441 277.53 10.4795 249.288 2.89004 235.781L-26.0497 184.256C-26.9083 182.723 -28.0966 181.397 -29.5302 180.37L-80.2495 144.009C-82.3577 142.491 -83.9293 140.337 -84.7112 137.853Z" fill="#6FE28F" stroke="#010101" stroke-miterlimit="10"/>
<path d="M95.604 210.659C95.604 210.659 27.9654 189.998 70.7503 92.2011C70.7503 92.2011 80.6857 70.0458 73.8091 52.4673C66.9326 34.8965 92.9132 24.1946 92.9132 24.1946C92.9132 24.1946 102.849 -27.0001 140.282 -27.0001C140.282 -27.0001 156.78 -15.1099 143.564 2.62959C130.347 20.3691 95.604 210.659 95.604 210.659Z" fill="#6FE28F" stroke="#010101" stroke-miterlimit="10"/>
<path d="M210.827 108.515C210.827 108.515 292.249 73.5726 293.33 5.09842C293.33 5.09842 293.867 -6.76118 262.06 20.1931C230.253 47.1473 182.263 79.4986 163.396 128.025L210.827 108.515Z" fill="#6FE28F" stroke="#010101" stroke-miterlimit="10"/>
<path d="M24.2558 339.773C24.2558 339.773 10.0427 318.898 -25.2523 358.931C-25.2523 358.931 5.81866 377.705 24.2558 339.773Z" fill="#6FE28F" stroke="#010101" stroke-miterlimit="10"/>
<path d="M32.0752 137.171C32.0752 137.171 57.6956 66.5887 0.375683 42.4556C0.375683 42.4556 -32.8112 -1.7934 -46.8862 -3.29597C-60.9613 -4.8062 -60.9613 -2.29166 -60.9613 -2.29166L8.40216 74.5693L32.0752 137.171Z" fill="#6FE28F" stroke="#010101" stroke-miterlimit="10"/>
<path d="M54.8202 449.474C55.0962 436.158 57.7333 417.484 55.2495 401.975C53.0493 388.214 42.4623 359.259 23.2432 342.447L24.2475 339.772C24.2475 339.772 54.1456 370.674 62.287 399.315C62.287 399.315 38.3149 292.847 22.6453 281.915C21.2424 280.934 20.0695 279.676 19.2185 278.189C9.10684 260.519 -44.288 168.157 -57.9261 164.017C-75.2976 158.75 -83.1861 141.111 -83.1861 141.111C-83.1861 141.111 -69.456 141.816 -55.2813 146.638C-48.535 148.93 -42.2871 158.858 -35.7939 161.388C2.13829 176.137 -0.744186 203.559 4.76779 211.432C15.8301 227.232 22.4383 259.798 20.5678 267.273C19.5252 271.428 20.6981 272.716 21.94 273.045C23.3812 273.421 24.6155 274.31 25.2518 275.66C33.5236 293.192 74.1926 390.276 73.173 397.521C73.173 397.521 66.3194 200.707 29.5755 143.411C29.5755 143.411 14.6265 84.2431 -76.9305 -4.20147C-76.9305 -4.20147 -64.473 -18.5296 -32.7121 10.1265C-32.7121 10.1265 4.03185 74.277 19.6018 82.3725C19.6018 82.3725 39.5338 107.908 32.0593 137.178C32.0593 137.178 83.7523 271.711 80.6398 328.387C80.6398 328.387 91.8477 214.407 95.5888 210.673C99.3223 206.94 66.9404 188.25 78.1483 156.489C89.3562 124.728 88.7353 158.98 100.572 87.3555C100.572 87.3555 106.797 68.0444 120.504 59.3279C120.504 59.3279 111.159 29.4299 143.548 2.65204C143.548 2.65204 103.408 182.378 102.458 203.459C102.404 204.563 102.297 205.66 102.159 206.756C100.012 224.166 86.6424 334.29 91.2345 337.732C91.2345 337.732 140.804 199.772 147.91 187.629C147.91 187.629 112.953 146.055 183.412 117.875C186.525 116.633 207.078 111.021 210.819 108.53C214.552 106.038 164.73 164.584 156.635 183.267C148.539 201.949 92.4841 350.803 99.9586 359.527C99.9586 359.527 132.448 274.586 161.924 245.815C162.56 245.194 162.453 247.87 163.082 247.302C163.082 247.302 101.208 349.569 101.208 393.787C101.208 393.787 130.478 345.207 140.444 343.336C140.444 343.336 145.051 310.126 157.393 312.702C167.743 314.864 199.35 310.931 199.197 306.654C199.197 306.654 219.282 321.028 155.745 347.261C149.996 349.638 145.641 345.989 140.965 349.975C116.54 370.789 99.9816 411.005 102.074 449.053C102.113 449.704 86.2514 450.563 86.2514 450.563C72.644 451.598 54.8202 449.474 54.8202 449.474Z" fill="#365948" stroke="#010101" stroke-miterlimit="10"/>
<path d="M162.032 247.379C162.032 247.379 178.024 251.251 196.078 239.897C196.078 239.897 223.676 236.8 241.73 205.338C241.73 205.338 251.013 198.63 241.73 196.054C232.446 193.479 194.284 210.72 188.649 208.857C174.919 204.318 165.129 221.851 162.032 247.379Z" fill="#6FE28F" stroke="#010101" stroke-miterlimit="10"/>
<path d="M140.452 343.321C140.452 343.321 141.992 323.979 149.107 316.06C155.983 308.401 168.372 312.173 172.45 311.422C182.455 309.582 193.371 303.089 197.587 305.197C201.804 307.305 203.912 315.209 196.008 317.839C188.104 320.476 177.38 326.087 173.692 331.883C170.005 337.679 142.031 349.645 140.452 343.321Z" fill="#6FE28F" stroke="#010101" stroke-miterlimit="10"/>
<path d="M153.939 524.753C153.827 524.719 153.732 524.633 153.612 524.607L22.4978 498.136C-6.74406 493.366 -4.7083 488.389 -7.38233 471.104C-9.13339 459.779 -11.9886 399.351 -12.0662 397.703V397.634L-21.3132 326.941C-21.6669 324.242 -24.0303 322.266 -26.7475 322.404C-30.4653 322.594 -33.2946 325.829 -32.9754 329.537L-20.8733 479.255C-19.0618 497.109 -18.6391 505.045 36.9289 514.8C93.6702 524.753 135.299 534.31 135.299 534.31C135.299 534.31 148.66 537.208 152.076 549.008C154.535 557.478 156.182 569.389 155.406 588.701C154.535 610.549 153.741 638.831 153.094 665.501C143.545 665.294 132.495 667.683 126.75 668.899C117.503 670.857 -5.75206 696.716 -13.1272 703.564C-18.113 708.187 -19.8554 717.028 -8.99537 722.885C7.59225 731.838 99.7601 759.654 131.892 769.608C140.259 772.195 151.446 772.903 158.494 767.702C164.799 763.035 168.879 753.815 169.155 743.818C169.354 736.556 169.949 712.56 170.63 684.338C170.751 679.456 170.872 674.445 171.001 669.365C172.2 619.899 173.52 564.542 173.555 563.326C173.555 563.308 173.969 530.067 153.939 524.753ZM126.75 752.53C101.52 744.267 9.51579 716.183 6.01367 714.199C3.21025 712.603 -0.196995 711.318 9.87806 708.636C26.5951 704.194 118.582 684.304 118.582 684.304C121.558 683.588 141.337 679.853 152.758 679.474C151.904 717.028 151.369 748.148 151.369 748.148C151.369 748.148 152.861 761.078 126.75 752.53Z" fill="#FFF354" stroke="#010101" stroke-miterlimit="10"/>
<path d="M-22.6157 311.674C-22.6157 311.674 -29.7235 278.174 -0.274609 278.174C29.1742 278.174 152.3 282.875 152.3 282.875C152.3 282.875 167.62 283.401 170.665 306.749C173.71 330.098 178.428 394.934 178.428 394.934C178.428 394.934 179.446 408.131 166.24 409.149C153.034 410.166 23.714 428.607 23.714 428.607C23.714 428.607 2.77035 435.542 -7.38235 411.176C-17.5437 386.809 -22.6157 311.674 -22.6157 311.674Z" fill="#FFF354" stroke="#010101" stroke-miterlimit="10"/>
<path d="M1.26081 399.273C1.26081 399.273 0.872664 420.603 22.1959 417.558C43.5191 414.514 155.501 402.792 155.501 402.792C155.501 402.792 168.146 403.163 169.164 390.975C170.182 378.788 161.159 301.531 161.159 301.531C161.159 301.531 161.504 292.63 147.962 292.397C132.047 292.121 3.77961 288.335 3.77961 288.335C3.77961 288.335 -11.4538 285.29 -10.4359 295.442C-9.41806 305.585 1.26081 399.273 1.26081 399.273Z" fill="#FFF354" stroke="#010101" stroke-miterlimit="10"/>
<path d="M207.296 381.619C199.31 367.787 214.085 344.305 240.297 329.17C266.509 314.036 294.233 312.981 302.219 326.813C310.205 340.645 295.43 364.127 269.218 379.261C243.006 394.395 215.282 395.451 207.296 381.619Z" fill="#FFF354" stroke="#010101" stroke-miterlimit="10"/>
<path d="M219.479 362.006C219.841 362.006 247.252 322.528 286.437 326.237C286.437 326.237 281.694 367.294 278.39 371.442L299.824 426.653C300.298 427.835 300.661 429.025 300.911 430.224C302.645 430.785 304.344 431.475 305.983 432.311L326.977 428.076C328.917 427.68 330.979 428.077 332.721 429.043C334.464 430.009 335.895 431.535 336.611 433.398C338.026 437.124 336.016 440.782 332.117 441.575L318.86 444.249L316.911 444.646L320.861 448.501L346.651 473.61C347.393 474.334 347.893 475.162 348.178 476.034C348.868 478.19 348.186 480.596 346.194 482.209C343.382 484.469 339.044 484.288 336.49 481.795L320.879 466.589C320.559 467.494 320.18 468.374 319.749 469.245L334.938 484.038C335.68 484.762 336.189 485.599 336.473 486.47C337.163 488.618 336.473 491.024 334.481 492.629C331.677 494.897 327.339 494.707 324.786 492.223L311.563 479.346C310.856 479.923 310.131 480.45 309.381 480.959L322.69 493.922C323.432 494.647 323.932 495.475 324.217 496.346C324.907 498.494 324.217 500.9 322.233 502.513C319.421 504.773 315.082 504.592 312.538 502.108L296.296 486.298C295.184 486.505 294.071 486.669 292.95 486.781L309.864 503.246C310.606 503.971 311.106 504.799 311.391 505.67C312.081 507.827 311.399 510.233 309.407 511.837C306.595 514.106 302.256 513.925 299.712 511.432L266.09 478.681C265.763 478.371 265.486 478.043 265.254 477.69C265.167 477.603 265.072 477.526 264.978 477.431C258.284 470.919 255.559 462.431 256.68 454.297C252.626 451.511 249.4 447.716 247.554 443.119C247.554 443.119 232.917 421.219 225.197 399.164C219.099 381.732 219.548 363.248 219.479 362.006Z" fill="#FFDECE" stroke="#010101" stroke-miterlimit="10"/>
<path d="M17.7921 379.593L44.5048 392.635L67.966 460.499C92.9191 479.984 121.107 477.733 155.367 477.733C192.059 477.733 217.728 468.848 240.732 446.405C245.183 442.084 249.521 437.236 253.825 431.854C263.641 411.05 265.349 339.088 266.047 338.605C291.872 320.44 304.223 334.396 304.223 334.396C290.492 223.784 185.452 182.797 185.452 182.797C185.452 182.797 185.409 194.001 169.745 193.389C130.845 191.862 129.12 175.086 126.153 176.181C61.333 200.082 20.1297 261.917 16.6192 344.824C16.024 359.168 14.8681 366.948 17.7921 379.593Z" fill="#FFF354" stroke="#010101" stroke-miterlimit="10"/>
<path d="M17.2416 379.884C9.25534 366.051 22.8933 343.226 47.703 328.902C72.5128 314.578 99.0991 314.179 107.085 328.011C115.072 341.843 101.434 364.668 76.6239 378.993C51.8142 393.317 25.2279 393.716 17.2416 379.884Z" fill="#FFF354" stroke="#010101" stroke-miterlimit="10"/>
<path d="M121.416 273.441C121.416 273.441 105.666 296.824 107.098 327.849L121.416 273.441Z" fill="#FFF354"/>
<path d="M121.416 273.441C121.416 273.441 105.666 296.824 107.098 327.849" stroke="#010101" stroke-miterlimit="10"/>
<path d="M25.7788 346.92C26.1411 346.92 52.276 314.359 91.4611 318.543C91.4611 318.543 87.269 355.002 83.9655 359.686L105.4 421.995C105.874 423.332 106.236 424.669 106.486 426.023C108.22 426.662 109.919 427.438 111.558 428.378L132.552 423.6C134.493 423.151 136.554 423.6 138.297 424.686C140.039 425.773 141.471 427.498 142.187 429.603C143.601 433.812 141.592 437.935 137.693 438.832L124.436 441.851L122.486 442.299L126.437 446.647L152.227 474.989C152.968 475.8 153.469 476.741 153.753 477.732C154.443 480.165 153.762 482.882 151.77 484.702C148.958 487.255 144.619 487.048 142.066 484.236L126.454 467.071C126.135 468.089 125.756 469.081 125.324 470.073L140.513 486.772C141.255 487.582 141.764 488.531 142.049 489.515C142.739 491.938 142.049 494.655 140.056 496.467C137.253 499.02 132.915 498.813 130.361 496.009L117.139 481.476C116.431 482.123 115.707 482.726 114.957 483.296L128.265 497.933C129.007 498.744 129.507 499.684 129.792 500.676C130.482 503.1 129.792 505.817 127.808 507.637C124.996 510.19 120.658 509.983 118.113 507.179L101.872 489.334C100.759 489.575 99.6465 489.747 98.5252 489.877L115.439 508.465C116.181 509.276 116.681 510.215 116.966 511.207C117.656 513.64 116.975 516.357 114.982 518.168C112.171 520.73 107.832 520.523 105.288 517.711L71.6657 480.751C71.3379 480.397 71.0619 480.027 70.829 479.63C70.7428 479.535 70.6481 479.44 70.5532 479.337C63.8599 471.979 61.1342 462.405 62.2555 453.228C58.2016 450.088 54.9756 445.801 53.1298 440.617C53.1298 440.617 38.4926 415.897 30.7729 391.004C24.6748 371.304 25.6408 348.576 25.7788 346.92Z" fill="#FFDECE" stroke="#010101" stroke-miterlimit="10"/>
<path d="M266.039 338.614C266.039 338.614 267.574 303.129 251.609 278.84L266.039 338.614Z" fill="#FFF354"/>
<path d="M266.039 338.614C266.039 338.614 267.574 303.129 251.609 278.84" stroke="#010101" stroke-miterlimit="10"/>
<path fill-rule="evenodd" clip-rule="evenodd" d="M173.978 24.148L171.112 24C140.107 24.1603 122.921 50.2033 123.94 80.7778L124.09 91.8323C118.142 92.6808 110.004 96.1476 112.784 108.948C114.682 117.691 119.642 120.759 124.491 121.448L125.467 193.538C135.654 199.928 147.379 203.542 159.445 204.011C171.511 204.48 183.488 201.787 194.154 196.208L194.955 195.789C195.036 187.182 194.823 179.351 194.823 179.351C194.823 179.351 224.791 176.355 226.73 147.094C227.669 132.962 227.199 103.713 226.461 77.245C226.088 63.5134 220.479 50.4242 210.753 40.5844C201.027 30.7446 187.897 24.8762 173.978 24.148Z" fill="#FFDECE"/>
<path d="M171.112 24L171.11 23.5L171.124 23.4999L171.138 23.5007L171.112 24ZM173.978 24.148L174.004 23.6486L174.004 23.6487L173.978 24.148ZM123.94 80.7778L124.44 80.7612L124.44 80.7711L123.94 80.7778ZM124.09 91.8323L124.59 91.8256L124.596 92.2652L124.161 92.3273L124.09 91.8323ZM112.784 108.948L113.272 108.842L112.784 108.948ZM124.491 121.448L124.561 120.953L124.985 121.013L124.991 121.441L124.491 121.448ZM125.467 193.538L125.201 193.962L124.971 193.817L124.967 193.545L125.467 193.538ZM159.445 204.011L159.464 203.511L159.445 204.011ZM194.154 196.208L194.386 196.651L194.386 196.651L194.154 196.208ZM194.955 195.789L195.455 195.793L195.452 196.093L195.187 196.232L194.955 195.789ZM194.823 179.351L194.324 179.365L194.311 178.9L194.774 178.854L194.823 179.351ZM226.73 147.094L226.231 147.061L226.231 147.061L226.73 147.094ZM226.461 77.245L225.961 77.259L225.961 77.2586L226.461 77.245ZM210.753 40.5844L211.109 40.2329L210.753 40.5844ZM171.138 23.5007L174.004 23.6486L173.952 24.6473L171.087 24.4993L171.138 23.5007ZM123.441 80.7945C122.928 65.414 126.992 51.1387 135.122 40.6768C143.26 30.2037 155.453 23.581 171.11 23.5L171.115 24.5C155.766 24.5793 143.863 31.0583 135.912 41.2904C127.952 51.5337 123.933 65.5671 124.44 80.7612L123.441 80.7945ZM123.59 91.8391L123.44 80.7846L124.44 80.7711L124.59 91.8256L123.59 91.8391ZM124.161 92.3273C121.232 92.7451 117.844 93.7993 115.527 96.2515C113.238 98.6746 111.908 102.558 113.272 108.842L112.295 109.054C110.88 102.537 112.228 98.2873 114.8 95.5648C117.345 92.8715 121 91.768 124.019 91.3373L124.161 92.3273ZM113.272 108.842C114.205 113.136 115.878 115.99 117.872 117.853C119.867 119.716 122.217 120.62 124.561 120.953L124.421 121.943C121.916 121.587 119.362 120.613 117.19 118.584C115.017 116.554 113.261 113.503 112.295 109.054L113.272 108.842ZM124.967 193.545L123.991 121.455L124.991 121.441L125.967 193.531L124.967 193.545ZM159.425 204.51C147.272 204.038 135.463 200.398 125.201 193.962L125.733 193.115C135.846 199.458 147.485 203.045 159.464 203.511L159.425 204.51ZM194.386 196.651C183.642 202.271 171.579 204.983 159.425 204.51L159.464 203.511C171.444 203.977 183.334 201.303 193.922 195.765L194.386 196.651ZM195.187 196.232L194.386 196.651L193.922 195.765L194.723 195.346L195.187 196.232ZM194.823 179.351C195.323 179.338 195.323 179.338 195.323 179.338C195.323 179.338 195.323 179.338 195.323 179.338C195.323 179.338 195.323 179.339 195.323 179.339C195.323 179.34 195.323 179.342 195.323 179.344C195.324 179.348 195.324 179.353 195.324 179.361C195.324 179.376 195.325 179.399 195.326 179.429C195.327 179.488 195.329 179.577 195.332 179.692C195.338 179.924 195.346 180.264 195.355 180.699C195.374 181.568 195.398 182.817 195.42 184.335C195.463 187.371 195.496 191.485 195.455 195.793L194.455 195.784C194.496 191.486 194.463 187.38 194.42 184.349C194.398 182.834 194.374 181.588 194.356 180.72C194.346 180.286 194.338 179.947 194.333 179.717C194.33 179.602 194.328 179.514 194.326 179.454C194.325 179.425 194.325 179.402 194.324 179.387C194.324 179.38 194.324 179.374 194.324 179.371C194.324 179.369 194.324 179.367 194.324 179.366C194.324 179.366 194.324 179.366 194.324 179.365C194.324 179.365 194.324 179.365 194.324 179.365C194.324 179.365 194.324 179.365 194.823 179.351ZM227.229 147.127C226.246 161.962 218.141 170.161 210.297 174.63C206.382 176.861 202.532 178.164 199.662 178.91C198.226 179.283 197.034 179.517 196.198 179.659C195.78 179.729 195.452 179.776 195.226 179.806C195.113 179.821 195.026 179.832 194.967 179.839C194.937 179.842 194.914 179.845 194.899 179.846C194.891 179.847 194.885 179.848 194.881 179.848C194.878 179.848 194.877 179.849 194.876 179.849C194.875 179.849 194.874 179.849 194.874 179.849C194.874 179.849 194.873 179.849 194.823 179.351C194.774 178.854 194.774 178.854 194.774 178.854C194.774 178.854 194.774 178.854 194.774 178.854C194.775 178.854 194.776 178.854 194.777 178.854C194.78 178.853 194.785 178.853 194.792 178.852C194.805 178.851 194.825 178.848 194.852 178.845C194.906 178.839 194.988 178.829 195.095 178.815C195.309 178.787 195.626 178.741 196.032 178.673C196.842 178.536 198.006 178.307 199.41 177.942C202.22 177.212 205.983 175.937 209.802 173.761C217.426 169.417 225.275 161.486 226.231 147.061L227.229 147.127ZM226.961 77.2311C227.699 103.692 228.169 132.967 227.229 147.127L226.231 147.061C227.168 132.958 226.7 103.734 225.961 77.259L226.961 77.2311ZM211.109 40.2329C220.923 50.1622 226.584 63.3719 226.961 77.2314L225.961 77.2586C225.591 63.6548 220.035 50.6862 210.398 40.9359L211.109 40.2329ZM174.004 23.6487C188.046 24.3834 201.294 30.3038 211.109 40.2329L210.398 40.9359C200.76 31.1854 187.747 25.3691 173.952 24.6473L174.004 23.6487Z" fill="black"/>
<path d="M155.451 88.1847C143.122 83.2892 118.572 79.6992 121.183 91.4484" stroke="#010101"/>
<path d="M167.844 90.5413C167.892 91.6223 168.365 92.6419 169.161 93.3833C169.957 94.1246 171.014 94.529 172.106 94.5104C172.641 94.5243 173.174 94.4321 173.672 94.2393C174.171 94.0465 174.625 93.757 175.009 93.3878C175.393 93.0186 175.698 92.5771 175.908 92.0893C176.117 91.6015 176.225 91.0773 176.226 90.5474C176.18 89.4654 175.708 88.4441 174.912 87.7015C174.116 86.9589 173.058 86.5536 171.964 86.5722C171.429 86.5583 170.896 86.6507 170.397 86.8438C169.898 87.037 169.443 87.3271 169.059 87.6969C168.675 88.0668 168.37 88.509 168.161 88.9975C167.953 89.486 167.845 90.0109 167.844 90.5413Z" fill="#010101" stroke="#010101"/>
<path d="M207.993 90.5414C208.041 91.6223 208.514 92.642 209.31 93.3833C210.106 94.1246 211.163 94.529 212.255 94.5104C212.79 94.5243 213.323 94.4321 213.821 94.2393C214.32 94.0465 214.774 93.757 215.158 93.3878C215.542 93.0186 215.847 92.5771 216.057 92.0894C216.266 91.6016 216.374 91.0774 216.375 90.5475C216.327 89.466 215.855 88.4457 215.059 87.7034C214.263 86.9611 213.207 86.5554 212.113 86.5723C211.578 86.5576 211.044 86.6494 210.545 86.8423C210.046 87.0351 209.591 87.3251 209.207 87.6952C208.822 88.0652 208.517 88.5078 208.309 88.9966C208.1 89.4855 207.993 90.0108 207.993 90.5414Z" fill="#010101" stroke="#010101"/>
<path d="M224.885 85.4876C223.775 86.542 219.253 83.7231 213.987 83.8433C208.757 83.8319 204.414 86.7573 203.372 85.7152C202.918 85.2152 203.61 84.1651 205.541 83.1278C208.144 81.8816 211.181 81.1982 214.266 81.1641C217.352 81.1301 220.347 81.747 222.873 82.9367C224.749 83.9333 225.371 84.9673 224.885 85.4876Z" fill="#010101"/>
<path d="M161.894 85.4876C163.005 86.542 167.527 83.7231 172.793 83.8433C178.023 83.8319 182.366 86.7573 183.408 85.7152C183.862 85.2152 183.17 84.1651 181.239 83.1278C178.636 81.8816 175.599 81.1982 172.513 81.1641C169.428 81.1301 166.433 81.747 163.907 82.9367C162.031 83.9333 161.408 84.9673 161.894 85.4876Z" fill="#010101"/>
<path d="M194.398 139.848C194.398 141.05 196.59 143.112 199.293 143.112C201.997 143.112 204.189 141.05 204.189 139.848" stroke="#010101"/>
<path d="M155.453 83.9417C172.91 81.2159 185.21 83.7795 189.177 85.402V104.386C174.365 107.89 160.522 102.925 155.453 100.005V83.9417Z" fill="white" fill-opacity="0.3" stroke="#010101"/>
<path d="M228.341 82.8534C214.826 80.1275 205.303 82.6911 202.232 84.3137V103.297C213.699 106.802 224.416 101.837 228.341 98.9166V82.8534Z" fill="white" fill-opacity="0.3" stroke="#010101"/>
<path d="M202.232 89.2729C200.346 86.81 195.966 83.3621 189.177 89.2729" stroke="#010101"/>
<path d="M199.029 94.7125C199.936 98.1574 201.64 105.7 201.205 108.311C200.661 111.575 208.82 115.382 203.925 120.278C200.008 124.194 192.502 123.723 189.239 122.997C191.415 121.003 194.243 117.884 188.151 121.366C186.338 121.003 183.364 119.407 185.975 115.926" stroke="#010101"/>
<path d="M213.11 150.195C216.591 131.918 205.132 126.624 198.967 126.261C187.653 127.567 186.275 135.871 187 139.86C187.87 165.099 190.626 157.266 191.895 150.195V139.86C191.895 137.503 193.31 132.897 198.967 133.332C204.625 133.768 207.126 137.865 207.669 139.86C208.032 150.92 209.629 168.471 213.11 150.195Z" fill="#010101"/>
<path d="M155.996 142.579C135.109 137.357 130.25 109.58 130.431 96.3436C122.272 121.909 130.431 155.633 138.59 162.705C146.749 169.776 169.051 185.006 203.319 184.462C237.588 183.918 231.604 138.227 225.077 142.579C219.855 146.06 212.748 152.732 209.847 155.633C203.755 149.976 194.616 153.276 190.809 155.633C187.908 153.458 176.884 147.801 155.996 142.579Z" fill="#010101"/>
</g>
<defs>
<clipPath id="clip0_239602_247">
<rect width="370" height="354" fill="white"/>
</clipPath>
</defs>
</svg>
